<?xml version="1.0" encoding="UTF-8"?><svg id="Layer_1" xmlns="http://www.w3.org/2000/svg" viewBox="0 0 300 61.28"><defs><style>.cls-1{fill: var(--clr-light);}</style></defs><g><path class="cls-1" d="m64.65,45.18c-2.07,0-4.04-.28-5.93-.85-1.89-.57-3.48-1.46-4.78-2.69s-2.12-2.84-2.45-4.86l7.79-1.55c.15,1.27.62,2.23,1.4,2.9.78.67,1.98,1,3.6,1s2.68-.27,3.35-.8c.67-.53,1-1.14,1-1.82,0-.62-.28-1.19-.84-1.71-.56-.52-1.6-.89-3.13-1.09l-2.1-.3c-1-.15-2.07-.35-3.22-.59-1.15-.24-2.24-.62-3.27-1.15-1.03-.52-1.88-1.26-2.54-2.21-.66-.95-.99-2.2-.99-3.75,0-1.78.48-3.34,1.45-4.67.97-1.33,2.34-2.36,4.11-3.1s3.84-1.1,6.21-1.1c2.05,0,3.95.29,5.72.87,1.76.58,3.26,1.45,4.47,2.61,1.22,1.16,2,2.6,2.35,4.33l-7.72,1.6c-.12-.55-.32-1.09-.6-1.64-.28-.54-.72-.99-1.32-1.34s-1.44-.52-2.52-.52c-1.17,0-2.05.22-2.66.65-.61.43-.91.98-.91,1.65,0,.58.22,1.05.67,1.41.45.36,1.04.64,1.77.84.73.2,1.52.37,2.37.5l2.57.4c1.43.2,2.82.59,4.16,1.16,1.34.57,2.44,1.41,3.28,2.51s1.27,2.55,1.27,4.35c0,1.96-.55,3.61-1.65,4.95s-2.6,2.33-4.5,3-4.04,1-6.42,1Z"/><path class="cls-1" d="m91.12,44.51c-2.4,0-4.19-.54-5.37-1.62s-1.77-2.7-1.77-4.85v-14.21h-3.67v-6.29h3.67v-5.15l8.79-2.17v7.32h4.85v6.29h-4.85v13.01c0,.55.08.92.24,1.1.16.18.5.27,1.01.27h4.12v6.29h-7.02Z"/><path class="cls-1" d="m105.51,54.25v-6.29h4.72c.38,0,.67-.06.85-.19s.35-.38.5-.76l1.12-3.02-.42,3.05-12.14-29.5h9.87l6.29,20.51-.67-.05,6.27-20.46h9.87l-12.41,31.67c-.78,1.96-1.83,3.3-3.13,4-1.31.7-2.89,1.05-4.73,1.05h-5.97Z"/><path class="cls-1" d="m142.51,44.51c-2.41,0-4.21-.54-5.4-1.62s-1.77-2.7-1.77-4.85V7.04h8.82v29.8c0,.55.08.92.24,1.1.16.18.5.27,1.01.27h1.85v6.29h-4.75Z"/><path class="cls-1" d="m164.54,45.18c-2.66,0-5.1-.58-7.31-1.74-2.21-1.16-3.97-2.8-5.28-4.92s-1.97-4.64-1.97-7.56.64-5.37,1.92-7.48c1.28-2.11,3.02-3.74,5.22-4.9,2.2-1.16,4.68-1.74,7.44-1.74,1.5,0,3.03.22,4.6.67s3.01,1.25,4.32,2.4,2.37,2.76,3.17,4.83,1.2,4.73,1.2,7.96h-22.23v-4.6h14.36l-.62,1.22c-.15-1.57-.46-2.83-.92-3.78-.47-.96-1.05-1.66-1.76-2.1-.71-.44-1.5-.66-2.39-.66-1.2,0-2.18.36-2.95,1.07s-1.33,1.69-1.7,2.93c-.37,1.24-.55,2.64-.55,4.21,0,2.36.42,4.26,1.27,5.68s2.21,2.14,4.1,2.14c1.17,0,2.18-.3,3.05-.9s1.54-1.56,2.02-2.87l7.84,1.87c-.63,1.96-1.63,3.56-2.98,4.77-1.36,1.22-2.9,2.1-4.63,2.65s-3.47.82-5.22.82Z"/><path class="cls-1" d="m190.74,44.51l-10.19-26.98h6.27l7.74,23.31h-.75l7.69-23.31h6.27l-10.14,26.98h-6.89Z"/><path class="cls-1" d="m219.97,45.13c-1.77,0-3.34-.33-4.71-.99-1.37-.66-2.46-1.59-3.25-2.78-.79-1.2-1.19-2.61-1.19-4.25,0-1.76.51-3.33,1.54-4.68,1.02-1.36,2.56-2.42,4.61-3.2s4.61-1.16,7.69-1.16h4.2l-.45.55v-1.5c0-2-.39-3.51-1.16-4.53-.78-1.02-2.06-1.54-3.86-1.54-1.7,0-3,.44-3.91,1.32s-1.42,2.1-1.54,3.65l-6-1.17c.22-1.47.81-2.8,1.79-4,.97-1.2,2.31-2.16,4-2.87s3.7-1.07,6.03-1.07,4.14.4,5.63,1.19c1.49.79,2.61,1.99,3.36,3.61s1.12,3.66,1.12,6.14v10.92c0,.55.08.92.24,1.1s.5.27,1.01.27h1.37v4.37h-3.05c-1.5,0-2.69-.41-3.56-1.24-.87-.82-1.31-1.94-1.31-3.36v-1.62l.92.22c-.25.7-.6,1.43-1.06,2.2-.46.77-1.07,1.49-1.82,2.16s-1.68,1.22-2.77,1.64c-1.09.42-2.39.62-3.88.62Zm1.47-4.2c1.3,0,2.47-.31,3.52-.94s1.89-1.58,2.52-2.86c.63-1.28.95-2.92.95-4.92v-.4h-3.75c-2.02,0-3.6.27-4.75.8s-1.96,1.19-2.44,1.96c-.48.77-.71,1.55-.71,2.31,0,.68.16,1.33.47,1.95.32.62.82,1.12,1.51,1.51.69.39,1.58.59,2.66.59Z"/><path class="cls-1" d="m250.94,45.13c-1.97,0-3.63-.45-5-1.34-1.37-.89-2.4-2.15-3.11-3.78s-1.06-3.55-1.06-5.75v-16.74h5.65v16.19c0,2.18.4,3.89,1.19,5.12.79,1.23,2.14,1.85,4.06,1.85,1.32,0,2.49-.34,3.52-1.02,1.03-.68,1.85-1.74,2.45-3.17.6-1.43.9-3.28.9-5.55v-13.41h5.62v26.98h-5.37v-6.34l.17,1.1c-.75,1.75-1.89,3.16-3.42,4.25-1.53,1.08-3.4,1.62-5.6,1.62Z"/><path class="cls-1" d="m277.74,44.51c-1.5,0-2.71-.41-3.62-1.24-.92-.82-1.37-1.94-1.37-3.36V7.04h5.65v31.72c0,.55.08.92.24,1.1s.5.27,1.01.27h2.37v4.37h-4.27Z"/><path class="cls-1" d="m293.98,44.51c-1.48,0-2.68-.41-3.6-1.24-.92-.82-1.37-1.94-1.37-3.36v-18.01h-4.15v-4.37h4.15v-5.5l5.62-1.3v6.79h5.2v4.37h-5.2v16.86c0,.55.08.92.24,1.1s.5.27,1.01.27h4.12v4.37h-6.02Z"/></g><g><circle class="cls-1" cx="13.92" cy="13.92" r="13.92"/><path class="cls-1" d="m13.92,37.82c5.26,0,9.54,4.28,9.54,9.54s-4.28,9.54-9.54,9.54-9.54-4.28-9.54-9.54,4.28-9.54,9.54-9.54m0-4.38C6.23,33.44,0,39.67,0,47.36s6.23,13.92,13.92,13.92,13.92-6.23,13.92-13.92-6.23-13.92-13.92-13.92h0Z"/></g></svg>